<svg width="15" height="19" viewBox="0 0 15 19" fill="none" xmlns="http://www.w3.org/2000/svg">
<path d="M0.406333 16.7254C0.543805 16.8004 3.81522 18.562 7.44981 18.562C11.3875 18.562 14.3786 16.7945 14.504 16.7193C14.5484 16.6927 14.5852 16.655 14.6107 16.6099C14.6362 16.5648 14.6496 16.5139 14.6496 16.4621C14.6496 14.0399 13.9069 11.8234 12.5583 10.2207C11.6149 9.09943 10.4312 8.3352 9.12564 7.98339C9.9248 7.60308 10.5708 6.96225 10.9576 6.16619C11.3444 5.37014 11.4489 4.4662 11.2539 3.6029C11.059 2.73959 10.5762 1.96827 9.88488 1.41566C9.19357 0.863048 8.33485 0.562012 7.44981 0.562012C6.56477 0.562012 5.70605 0.863048 5.01474 1.41566C4.32343 1.96827 3.84064 2.73959 3.6457 3.6029C3.45075 4.4662 3.55525 5.37014 3.94202 6.16619C4.32878 6.96225 4.97482 7.60308 5.77398 7.98339C4.46845 8.3352 3.28476 9.09955 2.34136 10.2207C0.992743 11.8234 0.25 14.0399 0.25 16.4621C0.25 16.516 0.264518 16.5689 0.292028 16.6152C0.319537 16.6615 0.359023 16.6996 0.406333 16.7254ZM4.1499 4.46238C4.1499 3.80972 4.34343 3.17171 4.70603 2.62904C5.06863 2.08638 5.58401 1.66342 6.18699 1.41366C6.78997 1.16389 7.45347 1.09854 8.09359 1.22587C8.73371 1.3532 9.3217 1.66749 9.7832 2.12899C10.2447 2.59049 10.559 3.17848 10.6863 3.8186C10.8136 4.45872 10.7483 5.12222 10.4985 5.7252C10.2488 6.32818 9.82581 6.84356 9.28315 7.20616C8.74048 7.56876 8.10247 7.76229 7.44981 7.76229C6.57493 7.7613 5.73616 7.41331 5.11752 6.79467C4.49888 6.17603 4.15089 5.33727 4.1499 4.46238ZM2.80042 10.6069C4.01865 9.15943 5.66966 8.36228 7.44981 8.36228C9.22997 8.36228 10.881 9.15943 12.0992 10.6069C13.3247 12.0633 14.0138 14.0748 14.0483 16.2871C13.4063 16.6346 10.7388 17.962 7.44981 17.962C4.40827 17.962 1.54372 16.6267 0.851484 16.28C0.887483 14.0705 1.57623 12.0618 2.80042 10.6069Z" fill="#9EA7AC"/>
</svg>
